<?xml version="1.0" encoding="UTF-8" standalone="no"?>
<svg
   xmlns:dc="http://purl.org/dc/elements/1.1/"
   xmlns:cc="http://creativecommons.org/ns#"
   xmlns:rdf="http://www.w3.org/1999/02/22-rdf-syntax-ns#"
   xmlns:svg="http://www.w3.org/2000/svg"
   xmlns="http://www.w3.org/2000/svg"
   height="32"
   width="32"
   id="svg22"
   xml:space="preserve"
   viewBox="0 0 32 32"
   y="0px"
   x="0px"
   version="1.1"><metadata
     id="metadata28"><rdf:RDF><cc:Work
         rdf:about=""><dc:format>image/svg+xml</dc:format><dc:type
           rdf:resource="http://purl.org/dc/dcmitype/StillImage" /><dc:title></dc:title></cc:Work></rdf:RDF></metadata><defs
     id="defs26" /><path
     id="path8"
     d="m 16.058768,0.4122949 c -8.6415761,0 -15.64704614,7.0054689 -15.64704614,15.6470451 0,8.641577 7.00547004,15.647047 15.64704614,15.647047 8.641575,0 15.647046,-7.00547 15.647046,-15.647047 0,-8.6415762 -7.005471,-15.6470451 -15.647046,-15.6470451 z m 0.491693,3.5599308 c 4.521587,3.464e-4 8.200034,3.6803815 8.200034,8.2019703 v 4.216166 c 0,5.378688 -4.375791,9.754481 -9.75448,9.754479 H 8.3504243 V 12.174196 c 0,-4.5219364 3.6780987,-8.2019703 8.2000367,-8.2019703 z m 0.37748,4.897566 c -0.795556,0 -1.455881,0.5194627 -1.641556,1.2931113 -0.06711,0.279905 0.10532,0.561679 0.385223,0.629134 0.279905,0.06745 0.563962,-0.104968 0.63107,-0.385224 0.01042,-0.04381 0.02272,-0.08475 0.03872,-0.121954 0.117177,-0.271212 0.370968,-0.3716732 0.586546,-0.3716732 0.215578,0 0.467434,0.1001122 0.584612,0.3716732 0.016,0.0372 0.03022,0.07814 0.04065,0.121954 0.05737,0.239224 0.271434,0.398775 0.507178,0.398775 0.03999,0 0.08092,-0.0042 0.121956,-0.01355 0.280253,-0.06711 0.452679,-0.349229 0.385224,-0.629134 C 18.381891,9.3892533 17.723152,8.8697905 16.927945,8.8697905 Z m 4.280046,0 c -0.795555,0 -1.455879,0.5194627 -1.641556,1.2931113 -0.06711,0.279905 0.10532,0.561679 0.385224,0.629134 0.279905,0.06711 0.561679,-0.105319 0.629135,-0.385224 0.01041,-0.04381 0.02466,-0.08475 0.04065,-0.121954 0.117178,-0.271212 0.369033,-0.3716732 0.584611,-0.3716732 0.215926,0 0.468674,0.1001122 0.586546,0.3716732 0.01635,0.03755 0.03022,0.0778 0.04065,0.121954 0.05736,0.239224 0.271432,0.40071 0.507177,0.40071 0.04034,0 0.08058,-0.0058 0.121956,-0.01549 0.280252,-0.06711 0.453027,-0.348882 0.385224,-0.629135 C 22.662282,9.3892522 22.003892,8.8697894 21.20799,8.8697905 Z m -5.534443,3.9199873 c 0,1.589372 0.863,2.952091 2.098404,3.55606 0.139082,-0.727404 0.723222,-1.273755 1.422811,-1.273755 0.699587,0 1.281791,0.546351 1.420876,1.273755 1.235404,-0.603969 2.098402,-1.967035 2.098402,-3.55606 z"
     style="stroke-width:0.34770757" /></svg>