<?xml version="1.0" encoding="UTF-8" standalone="no"?>
<svg
   xmlns:dc="http://purl.org/dc/elements/1.1/"
   xmlns:cc="http://creativecommons.org/ns#"
   xmlns:rdf="http://www.w3.org/1999/02/22-rdf-syntax-ns#"
   xmlns:svg="http://www.w3.org/2000/svg"
   xmlns="http://www.w3.org/2000/svg"
   height="32"
   width="32"
   id="svg10"
   version="1.1"
   y="0px"
   x="0px"
   viewBox="0 0 32 32">
  <metadata
     id="metadata16">
    <rdf:RDF>
      <cc:Work
         rdf:about="">
        <dc:format>image/svg+xml</dc:format>
        <dc:type
           rdf:resource="http://purl.org/dc/dcmitype/StillImage" />
        <dc:title>glasses</dc:title>
      </cc:Work>
    </rdf:RDF>
  </metadata>
  <defs
     id="defs14" />
  <title
     id="title2">glasses</title>
  <path
     style="stroke-width:1.31073451"
     id="path4"
     d="M 30.905672,8.4357291 A 5.8668475,5.8668475 0 0 0 25.093876,3.3042037 h -1.229469 a 1.3107345,1.3107345 0 0 0 0,2.6214689 h 1.229469 a 3.2414463,3.2414463 0 0 1 3.211299,2.8351187 c 0.301469,2.4091297 0.508565,4.8431637 0.640949,7.2798187 a 7.0569944,7.0569944 0 0 0 -11.253966,4.360814 1.2583051,1.2583051 0 0 0 -0.292294,-0.05767 h -2.752542 a 1.268791,1.268791 0 0 0 -0.33948,0.06816 7.0569944,7.0569944 0 0 0 -11.2565878,-4.3713 C 3.1823277,13.603955 3.3907345,11.169921 3.6922034,8.7607913 A 3.2414463,3.2414463 0 0 1 6.907435,5.9256726 h 1.2281582 a 1.3107345,1.3107345 0 0 0 0,-2.6214689 H 6.907435 A 5.8668475,5.8668475 0 0 0 1.0943277,8.4357291 106.83666,106.83666 0 0 0 0.27118644,21.654486 7.0779661,7.0779661 0 0 0 14.310463,22.897062 a 1.268791,1.268791 0 0 0 0.339481,0.06816 h 2.752542 A 1.2583051,1.2583051 0 0 0 17.693469,22.906238 7.0779661,7.0779661 0 0 0 31.728814,21.654486 106.83666,106.83666 0 0 0 30.905672,8.4357291 Z M 7.3491525,26.110983 A 4.4564972,4.4564972 0 1 1 11.80565,21.654486 4.4564972,4.4564972 0 0 1 7.3491525,26.110983 Z m 17.3016945,0 a 4.4564972,4.4564972 0 1 1 4.456498,-4.456497 4.4564972,4.4564972 0 0 1 -4.456498,4.456497 z" />
</svg>
